# 3ds Max Wavefront OBJ Exporter v0.97b - (c)2007 guruware
# File Created: 12.12.2018 21:22:44

mtllib kuti_spindle.mtl

#
# object Spindle001
#

v  447.4304 5.0000 1032.8862
v  447.4404 5.0000 1032.8862
v  447.4385 5.0000 1032.8804
v  447.4335 5.0000 1032.8767
v  447.4273 5.0000 1032.8767
v  447.4223 5.0000 1032.8804
v  447.4204 5.0000 1032.8862
v  447.4223 5.0000 1032.8921
v  447.4273 5.0000 1032.8958
v  447.4335 5.0000 1032.8958
v  447.4385 5.0000 1032.8921
v  450.4354 4.0133 1032.8862
v  449.8615 4.0133 1031.1200
v  448.3590 4.0133 1030.0283
v  446.5018 4.0133 1030.0283
v  444.9993 4.0133 1031.1200
v  444.4254 4.0133 1032.8862
v  444.9993 4.0133 1034.6525
v  446.5018 4.0133 1035.7441
v  448.3590 4.0133 1035.7441
v  449.8615 4.0133 1034.6525
v  453.4304 3.0265 1032.8862
v  452.2845 3.0265 1029.3595
v  449.2845 3.0265 1027.1799
v  445.5763 3.0265 1027.1799
v  442.5763 3.0265 1029.3595
v  441.4304 3.0265 1032.8862
v  442.5763 3.0265 1036.4130
v  445.5763 3.0265 1038.5925
v  449.2845 3.0265 1038.5925
v  452.2845 3.0265 1036.4130
v  453.4304 1.9735 1032.8862
v  452.2845 1.9735 1029.3595
v  449.2845 1.9735 1027.1799
v  445.5763 1.9735 1027.1799
v  442.5763 1.9735 1029.3595
v  441.4304 1.9735 1032.8862
v  442.5763 1.9735 1036.4130
v  445.5763 1.9735 1038.5925
v  449.2845 1.9735 1038.5925
v  452.2845 1.9735 1036.4130
v  450.4354 0.9867 1032.8862
v  449.8615 0.9867 1031.1200
v  448.3590 0.9867 1030.0283
v  446.5018 0.9867 1030.0283
v  444.9993 0.9867 1031.1200
v  444.4254 0.9867 1032.8862
v  444.9993 0.9867 1034.6525
v  446.5018 0.9867 1035.7441
v  448.3590 0.9867 1035.7441
v  449.8615 0.9867 1034.6525
v  447.4404 0.0000 1032.8862
v  447.4385 0.0000 1032.8804
v  447.4335 0.0000 1032.8767
v  447.4273 0.0000 1032.8767
v  447.4223 0.0000 1032.8804
v  447.4204 0.0000 1032.8862
v  447.4223 0.0000 1032.8921
v  447.4273 0.0000 1032.8958
v  447.4335 0.0000 1032.8958
v  447.4385 0.0000 1032.8921
v  447.4304 0.0000 1032.8862
# 62 vertices

vn 0.0000 1.0000 -0.0000
vn 0.3129 0.9498 -0.0000
vn 0.2532 0.9498 -0.1839
vn 0.0967 0.9498 -0.2976
vn -0.0967 0.9498 -0.2976
vn -0.2532 0.9498 -0.1839
vn -0.3129 0.9498 0.0000
vn -0.2532 0.9498 0.1839
vn -0.0967 0.9498 0.2976
vn 0.0967 0.9498 0.2976
vn 0.2532 0.9498 0.1839
vn 1.0000 0.0000 -0.0000
vn 0.8090 0.0000 -0.5878
vn 0.3090 0.0000 -0.9511
vn -0.3090 0.0000 -0.9511
vn -0.8090 0.0000 -0.5878
vn -1.0000 0.0000 0.0000
vn -0.8090 0.0000 0.5878
vn -0.3090 0.0000 0.9511
vn 0.3090 0.0000 0.9511
vn 0.8090 0.0000 0.5878
vn 0.3129 -0.9498 -0.0000
vn 0.3129 -0.9498 0.0000
vn 0.2532 -0.9498 -0.1839
vn 0.0967 -0.9498 -0.2976
vn -0.0967 -0.9498 -0.2976
vn -0.2532 -0.9498 -0.1839
vn -0.3129 -0.9498 -0.0000
vn -0.3129 -0.9498 0.0000
vn -0.2532 -0.9498 0.1839
vn -0.0967 -0.9498 0.2976
vn 0.0967 -0.9498 0.2976
vn 0.2532 -0.9498 0.1839
vn 0.0000 -1.0000 -0.0000
# 34 vertex normals

vt 6.0000 6.0000 0.0000
vt 6.0100 6.0000 0.0000
vt 6.0081 6.0059 0.0000
vt 6.0031 6.0095 0.0000
vt 5.9969 6.0095 0.0000
vt 5.9919 6.0059 0.0000
vt 5.9900 6.0000 0.0000
vt 5.9919 5.9941 0.0000
vt 5.9969 5.9905 0.0000
vt 6.0031 5.9905 0.0000
vt 6.0081 5.9941 0.0000
vt 9.0050 6.0000 0.0000
vt 8.4311 7.7663 0.0000
vt 6.9286 8.8579 0.0000
vt 5.0714 8.8579 0.0000
vt 3.5689 7.7663 0.0000
vt 2.9950 6.0000 0.0000
vt 3.5689 4.2337 0.0000
vt 5.0714 3.1421 0.0000
vt 6.9286 3.1421 0.0000
vt 8.4311 4.2337 0.0000
vt 12.0000 6.0000 0.0000
vt 10.8541 9.5267 0.0000
vt 7.8541 11.7063 0.0000
vt 4.1459 11.7063 0.0000
vt 1.1459 9.5267 0.0000
vt 0.0000 6.0000 0.0000
vt 1.1459 2.4733 0.0000
vt 4.1459 0.2937 0.0000
vt 7.8541 0.2937 0.0000
vt 10.8541 2.4733 0.0000
vt 0.0000 1.0530 0.0000
vt 0.0000 0.0000 0.0000
vt 3.7699 0.0000 0.0000
vt 3.7699 1.0530 0.0000
vt 7.5398 0.0000 0.0000
vt 7.5398 1.0530 0.0000
vt 11.3097 0.0000 0.0000
vt 11.3097 1.0530 0.0000
vt 15.0796 0.0000 0.0000
vt 15.0796 1.0530 0.0000
vt 18.8496 0.0000 0.0000
vt 18.8496 1.0530 0.0000
vt 22.6195 0.0000 0.0000
vt 22.6195 1.0530 0.0000
vt 26.3894 0.0000 0.0000
vt 26.3894 1.0530 0.0000
vt 30.1593 0.0000 0.0000
vt 30.1593 1.0530 0.0000
vt 33.9292 0.0000 0.0000
vt 33.9292 1.0530 0.0000
vt 37.6991 0.0000 0.0000
vt 37.6991 1.0530 0.0000
# 53 texture coords

g Spindle001
usemtl wire_141007058
s 16
f 1/1/1 2/2/1 3/3/1 
f 1/1/1 3/3/1 4/4/1 
f 1/1/1 4/4/1 5/5/1 
f 1/1/1 5/5/1 6/6/1 
f 1/1/1 6/6/1 7/7/1 
f 1/1/1 7/7/1 8/8/1 
f 1/1/1 8/8/1 9/9/1 
f 1/1/1 9/9/1 10/10/1 
f 1/1/1 10/10/1 11/11/1 
f 1/1/1 11/11/1 2/2/1 
s 4
f 2/2/2 12/12/2 13/13/3 3/3/3 
f 3/3/3 13/13/3 14/14/4 4/4/4 
f 4/4/4 14/14/4 15/15/5 5/5/5 
f 5/5/5 15/15/5 16/16/6 6/6/6 
f 6/6/6 16/16/6 17/17/7 7/7/7 
f 7/7/7 17/17/7 18/18/8 8/8/8 
f 8/8/8 18/18/8 19/19/9 9/9/9 
f 9/9/9 19/19/9 20/20/10 10/10/10 
f 10/10/10 20/20/10 21/21/11 11/11/11 
f 11/11/11 21/21/11 12/12/2 2/2/2 
f 12/12/2 22/22/2 23/23/3 13/13/3 
f 13/13/3 23/23/3 24/24/4 14/14/4 
f 14/14/4 24/24/4 25/25/5 15/15/5 
f 15/15/5 25/25/5 26/26/6 16/16/6 
f 16/16/6 26/26/6 27/27/7 17/17/7 
f 17/17/7 27/27/7 28/28/8 18/18/8 
f 18/18/8 28/28/8 29/29/9 19/19/9 
f 19/19/9 29/29/9 30/30/10 20/20/10 
f 20/20/10 30/30/10 31/31/11 21/21/11 
f 21/21/11 31/31/11 22/22/2 12/12/2 
s 8
f 22/32/12 32/33/12 33/34/13 23/35/13 
f 23/35/13 33/34/13 34/36/14 24/37/14 
f 24/37/14 34/36/14 35/38/15 25/39/15 
f 25/39/15 35/38/15 36/40/16 26/41/16 
f 26/41/16 36/40/16 37/42/17 27/43/17 
f 27/43/17 37/42/17 38/44/18 28/45/18 
f 28/45/18 38/44/18 39/46/19 29/47/19 
f 29/47/19 39/46/19 40/48/20 30/49/20 
f 30/49/20 40/48/20 41/50/21 31/51/21 
f 31/51/21 41/50/21 32/52/12 22/53/12 
s 4
f 32/22/22 42/12/23 43/13/24 33/23/24 
f 33/23/24 43/13/24 44/14/25 34/24/25 
f 34/24/25 44/14/25 45/15/26 35/25/26 
f 35/25/26 45/15/26 46/16/27 36/26/27 
f 36/26/27 46/16/27 47/17/28 37/27/29 
f 37/27/29 47/17/28 48/18/30 38/28/30 
f 38/28/30 48/18/30 49/19/31 39/29/31 
f 39/29/31 49/19/31 50/20/32 40/30/32 
f 40/30/32 50/20/32 51/21/33 41/31/33 
f 41/31/33 51/21/33 42/12/23 32/22/22 
f 42/12/23 52/2/23 53/3/24 43/13/24 
f 43/13/24 53/3/24 54/4/25 44/14/25 
f 44/14/25 54/4/25 55/5/26 45/15/26 
f 45/15/26 55/5/26 56/6/27 46/16/27 
f 46/16/27 56/6/27 57/7/28 47/17/28 
f 47/17/28 57/7/28 58/8/30 48/18/30 
f 48/18/30 58/8/30 59/9/31 49/19/31 
f 49/19/31 59/9/31 60/10/32 50/20/32 
f 50/20/32 60/10/32 61/11/33 51/21/33 
f 51/21/33 61/11/33 52/2/23 42/12/23 
s 16
f 52/2/34 62/1/34 53/3/34 
f 53/3/34 62/1/34 54/4/34 
f 54/4/34 62/1/34 55/5/34 
f 55/5/34 62/1/34 56/6/34 
f 56/6/34 62/1/34 57/7/34 
f 57/7/34 62/1/34 58/8/34 
f 58/8/34 62/1/34 59/9/34 
f 59/9/34 62/1/34 60/10/34 
f 60/10/34 62/1/34 61/11/34 
f 61/11/34 62/1/34 52/2/34 
# 50 polygons - 20 triangles

